<svg width="128" height="128" viewBox="0 0 128 128" xmlns="http://www.w3.org/2000/svg">
  <defs>
    <linearGradient id="bgGradient" x1="0%" y1="0%" x2="100%" y2="100%">
      <stop offset="0%" style="stop-color:#667eea;stop-opacity:1" />
      <stop offset="100%" style="stop-color:#764ba2;stop-opacity:1" />
    </linearGradient>
    <linearGradient id="highlighterGradient" x1="0%" y1="0%" x2="100%" y2="0%">
      <stop offset="0%" style="stop-color:#fde047;stop-opacity:1" />
      <stop offset="100%" style="stop-color:#facc15;stop-opacity:1" />
    </linearGradient>
    <filter id="dropShadow" x="-50%" y="-50%" width="200%" height="200%">
      <feDropShadow dx="3" dy="6" stdDeviation="4" flood-color="#000" flood-opacity="0.25"/>
    </filter>
    <filter id="glow" x="-50%" y="-50%" width="200%" height="200%">
      <feGaussianBlur stdDeviation="2" result="coloredBlur"/>
      <feMerge> 
        <feMergeNode in="coloredBlur"/>
        <feMergeNode in="SourceGraphic"/>
      </feMerge>
    </filter>
  </defs>
  
  <!-- Background rectangle to fill entire space -->
  <rect x="0" y="0" width="128" height="128" rx="24" fill="url(#bgGradient)"/>
  
  <!-- Highlighter body -->
  <rect x="25" y="45" width="65" height="18" rx="9" fill="#ffffff" filter="url(#dropShadow)"/>
  <rect x="27" y="47" width="61" height="14" rx="7" fill="url(#highlighterGradient)"/>
  
  <!-- Highlighter cap -->
  <rect x="18" y="47" width="12" height="14" rx="6" fill="#1f2937"/>
  <rect x="19" y="48" width="10" height="12" rx="5" fill="#374151"/>
  <circle cx="24" cy="54" r="1.5" fill="#9ca3af"/>
  
  <!-- Highlighter tip -->
  <polygon points="88,51 98,53 98,57 88,59" fill="#dc2626"/>
  <polygon points="90,52 96,53 96,56 90,57" fill="#ef4444"/>
  
  <!-- Text lines -->
  <rect x="15" y="75" width="50" height="3" rx="1.5" fill="#f8fafc" opacity="0.9"/>
  <rect x="15" y="82" width="60" height="3" rx="1.5" fill="#f8fafc" opacity="0.9"/>
  <rect x="15" y="89" width="40" height="3" rx="1.5" fill="#f8fafc" opacity="0.9"/>
  <rect x="15" y="96" width="55" height="3" rx="1.5" fill="#f8fafc" opacity="0.9"/>
  
  <!-- Highlight effects with glow -->
  <rect x="20" y="73" width="30" height="7" rx="3" fill="#fde047" opacity="0.9" filter="url(#glow)"/>
  <rect x="25" y="87" width="25" height="7" rx="3" fill="#facc15" opacity="0.9" filter="url(#glow)"/>
  
  <!-- Sparkle effects -->
  <circle cx="75" cy="25" r="2.5" fill="#fde047" opacity="0.8"/>
  <circle cx="88" cy="20" r="1.5" fill="#facc15" opacity="0.9"/>
  <circle cx="95" cy="30" r="1" fill="#fbbf24"/>
  <circle cx="40" cy="23" r="2" fill="#a78bfa" opacity="0.7"/>
  <circle cx="105" cy="40" r="1.5" fill="#fde047" opacity="0.6"/>
  <circle cx="110" cy="70" r="1" fill="#facc15" opacity="0.7"/>
  
  <!-- Motion lines for dynamic effect -->
  <path d="M 100 48 L 115 45" stroke="#f8fafc" stroke-width="2" opacity="0.6" stroke-linecap="round"/>
  <path d="M 102 54 L 115 53" stroke="#f8fafc" stroke-width="1.5" opacity="0.5" stroke-linecap="round"/>
  <path d="M 101 60 L 112 62" stroke="#f8fafc" stroke-width="1.5" opacity="0.5" stroke-linecap="round"/>
  
  <!-- Additional decorative elements to fill space -->
  <circle cx="20" cy="110" r="1.5" fill="#a78bfa" opacity="0.5"/>
  <circle cx="108" cy="110" r="2" fill="#fde047" opacity="0.4"/>
  <circle cx="15" cy="45" r="1" fill="#facc15" opacity="0.6"/>
</svg> 